<?xml version="1.0" encoding="UTF-8"?>
<svg id="Capa_1" data-name="Capa 1" xmlns="http://www.w3.org/2000/svg" viewBox="0 0 1024 1024">
  <defs>
    <style>
      .cls-1 {
        fill: none;
      }

      .primary-fill {
        fill: #8A2BE2;
      }
    </style>
  </defs>
  <path class="cls-1" d="M2083.84-1059.84v3143.68H-1059.84V-1059.84h3143.68ZM36.18,1018.55l272.25-82.03c254.59,119.87,566.38-9.75,651.85-278.63C1073.5,301.7,749.33-40.63,388.54,58.51,88.88,140.86-48.67,477.76,102.84,749.34l-66.66,269.2Z"/>
  <path class="primary-fill" d="M36.18,1018.55l66.66-269.2C-48.67,477.76,88.88,140.86,388.54,58.51c360.8-99.15,684.96,243.19,571.74,599.37-85.47,268.89-397.26,398.5-651.85,278.63l-272.25,82.03ZM168.18,877.31l154.78-39.69c288.39,154.9,624.67-87.18,552.87-411.62-44.03-198.94-249.25-323.59-447.35-278.43C170.3,206.42,54.01,510.01,204.72,728.29l-36.55,149.03Z"/>
  <path class="cls-1" d="M168.18,877.31l36.55-149.03C54.01,510.01,170.3,206.42,428.48,147.57c198.11-45.16,403.33,79.49,447.35,278.43,71.8,324.44-264.47,566.52-552.87,411.62l-154.78,39.69ZM419.9,318.59h-75.22c-1.25,0-5.38-7.89-4.57,1.49l143.56,264.76c-.69,43.88,16.57,112.97-51.5,102.15v67.54c44.97-1.75,88.59-10.53,109.64-54.6,17.73-37.12,7.33-79.29,10.23-118.99l-132.15-262.34ZM680.85,318.59h-72.15l-74.53,137.12,34.62,74.74,112.06-211.86Z"/>
  <path class="primary-fill" d="M419.9,318.59l132.15,262.34c-2.9,39.71,7.49,81.87-10.23,118.99-21.05,44.07-64.67,52.86-109.64,54.6v-67.54c68.07,10.81,50.81-58.28,51.5-102.15l-143.56-264.76c-.81-9.38,3.33-1.49,4.57-1.49h75.22Z"/>
  <polygon class="primary-fill" points="680.85 318.59 568.79 530.45 534.18 455.71 608.7 318.59 680.85 318.59"/>
</svg>